<svg width="57" height="53" viewBox="0 0 57 53" fill="none" xmlns="http://www.w3.org/2000/svg">
<path d="M37.9751 51C37.9751 51 13.4751 51 11.4751 51C9.4751 51 13.1082 42.4811 19.9751 38.5M19.9751 38.5C27.4658 38.3477 31.5394 38.2861 36.9751 38.5C43.4852 43.3305 44.9629 46.0666 43.4751 51M19.9751 38.5C6.9751 37.5 3.82676 35.754 1.4751 48.5M42.4751 36.5C51.8184 37.1585 55.0976 39.1534 54.9751 47.5M25.4751 23.5C25.9751 21 17.5418 28.523 18.4751 37.5M30.4751 23.5C29.9751 21.5 38.4314 27.4297 36.4751 37.5M45.9751 18C52.5347 18.353 52.0669 25.2016 44.9751 30M46.9751 30C39.9214 24.6783 40.7071 18 46.9751 18M9.9751 17.5C10.0932 17.5064 10.2091 17.5148 10.3227 17.5253M10.3227 17.5253C16.1881 18.0686 15.9812 24.0974 10.0267 28.7368M10.3227 17.5253C4.93853 17.9546 4.23425 23.7562 10.0267 28.7368M10.3227 17.5253C10.533 17.5086 10.7506 17.5 10.9751 17.5M10.0267 28.7368C9.69408 28.9959 9.34353 29.2507 8.9751 29.5M10.0267 28.7368C10.3255 28.9936 10.6415 29.2483 10.9751 29.5M27.4751 22C16.7842 12.9088 17.9751 1.5 27.4751 1.5C36.9751 1.5 38.1378 13.0637 27.4751 22Z" stroke="#C48B5B" stroke-width="3"/>
</svg>
