<svg width="20" height="25" viewBox="0 0 20 25" fill="none" xmlns="http://www.w3.org/2000/svg">
<path d="M16.2877 19.3799H3.00474C1.43386 19.3799 0.476179 17.652 1.30874 16.3199L1.59224 15.8663C1.7909 15.5484 1.89624 15.1811 1.89624 14.8063V7.05719C1.89624 6.6179 2.03943 6.18905 2.31294 5.8453C4.35351 3.28062 5.97398 2.08025 9.20766 1.08261C9.65088 0.945873 10.13 0.980404 10.5514 1.17417C13.0271 2.31251 14.5992 3.37329 16.8769 5.81329C17.2144 6.17486 17.3962 6.65363 17.3962 7.14825V14.8063C17.3962 15.1811 17.5016 15.5484 17.7002 15.8663L17.9837 16.3199C18.8163 17.652 17.8586 19.3799 16.2877 19.3799Z" stroke="#C48B5B" stroke-width="2"/>
<path d="M9.36756 18.8799C6.51763 19.0336 6.97037 24.0276 9.36756 23.8765C12.2496 23.8765 11.8893 18.8799 9.36756 18.8799Z" stroke="#C48B5B"/>
</svg>
