<svg width="12" height="13" viewBox="0 0 12 13" fill="none" xmlns="http://www.w3.org/2000/svg">
<path d="M11.4938 5.25631L6.49375 0.256313C6.4125 0.175052 6.31604 0.110592 6.20987 0.066614C6.10371 0.0226356 5.98992 0 5.875 0C5.76009 0 5.6463 0.0226356 5.54013 0.066614C5.43397 0.110592 5.3375 0.175052 5.25625 0.256313L0.256253 5.25631C0.174781 5.33741 0.110187 5.43384 0.0662043 5.54004C0.0222212 5.64625 -0.000279461 5.76011 2.61972e-06 5.87506V11.8751C2.61972e-06 11.9745 0.0395114 12.0699 0.109838 12.1402C0.180164 12.2106 0.275546 12.2501 0.375003 12.2501H4.375C4.47446 12.2501 4.56984 12.2106 4.64017 12.1402C4.71049 12.0699 4.75 11.9745 4.75 11.8751V8.25006H7V11.8751C7 11.9745 7.03951 12.0699 7.10984 12.1402C7.18016 12.2106 7.27555 12.2501 7.375 12.2501H11.375C11.4745 12.2501 11.5698 12.2106 11.6402 12.1402C11.7105 12.0699 11.75 11.9745 11.75 11.8751V5.87506C11.7503 5.76011 11.7278 5.64625 11.6838 5.54004C11.6398 5.43384 11.5752 5.33741 11.4938 5.25631ZM11 11.5001H7.75V7.87506C7.75 7.77561 7.71049 7.68022 7.64017 7.6099C7.56984 7.53957 7.47446 7.50006 7.375 7.50006H4.375C4.27555 7.50006 4.18016 7.53957 4.10984 7.6099C4.03951 7.68022 4 7.77561 4 7.87506V11.5001H0.750003V5.87506C0.749908 5.85861 0.753061 5.8423 0.759281 5.82708C0.765502 5.81185 0.774668 5.79799 0.786253 5.78631L5.78625 0.786313C5.79787 0.774597 5.8117 0.765298 5.82693 0.758952C5.84216 0.752606 5.8585 0.749338 5.875 0.749338C5.8915 0.749338 5.90784 0.752606 5.92307 0.758952C5.93831 0.765298 5.95213 0.774597 5.96375 0.786313L10.9638 5.78631C10.9753 5.79799 10.9845 5.81185 10.9907 5.82708C10.9969 5.8423 11.0001 5.85861 11 5.87506V11.5001Z" fill="#C48B5B"/>
</svg>
