<svg width="135" height="106" viewBox="0 0 135 106" fill="none" xmlns="http://www.w3.org/2000/svg">
<path d="M66.8706 100.617C77.4674 89.1425 84.015 78.8661 87.2318 69.1172M66.8706 100.617C105.452 106.582 121.945 101.305 131.868 61.1172C127.962 60.4338 125.773 60.0506 121.868 59.3672C117.962 58.6838 115.773 58.3006 111.868 57.6172M48.1881 34.6172C43.5115 46.5765 43.244 57.4472 47.4337 69.1172C50.8829 78.7244 57.3529 88.8733 66.8706 100.617M66.8706 100.617C29.1642 104.301 9.40699 104.28 2.86523 61.1172C8.34873 60.5588 11.5793 59.8767 20.8637 59.1172M85.4548 34.6172C81.5522 24.9872 75.1049 15.0565 66.8706 4.11719C58.032 15.5105 51.7972 25.388 48.1881 34.6172M85.4548 34.6172C96.0151 28.4025 101.866 25.7789 111.868 25.1172C117.383 37.8132 115.884 44.9225 111.868 57.6172M85.4548 34.6172C90.1258 46.1434 91.1512 57.2389 87.2318 69.1172M111.868 57.6172C108.995 57.6973 106.483 58.0146 99.8676 59.1172C93.6749 61.3258 91.4635 64.2689 87.2318 69.1172M48.1881 34.6172C36.979 26.5096 31.0766 25.0361 20.8637 25.1172C17.0431 38.4915 16.5197 45.7429 20.8637 59.1172M20.8637 59.1172C27.9806 58.8714 29.9526 58.9693 31.8637 59.3672C39.3418 60.4046 42.2841 63.4952 47.4337 69.1172" stroke="#C48B5B" stroke-width="5"/>
</svg>
