<svg width="147" height="129" viewBox="0 0 147 129" fill="none" xmlns="http://www.w3.org/2000/svg">
<path d="M21.1466 91.1205C4.4672 100.713 -0.991904 107.567 4.64663 125.62H102.647C148.132 96.9366 150.145 45.1204 138.147 49.6205M83.1445 49.6205C81.2891 65.9837 82.2707 74.3055 87.6445 87.6209C112.967 75.1094 126.74 65.8483 139.145 48.6221M98.1445 46.6209L87.6445 32.6209C88.127 26.1816 87.7894 22.1176 87.6445 14.6209C76.6813 -1.18893 70.6078 -1.88787 59.6445 14.6209V63.6221M59.6445 91.1205V63.6221M59.6445 91.1205C40.8765 95.6537 33.6061 99.6681 26.6445 109.622M59.6445 91.1205C57.0105 100.378 58.5126 103.627 64.6445 107.122C70.232 103.556 72.9452 98.4079 77.6445 95.6221M59.6445 91.1205C68.1491 90.9702 74.2028 91.9224 77.6445 95.6221M59.6445 63.6221C48.2147 70.62 43.253 74.5681 35.6445 81.6221M77.6445 95.6221C87.3298 96.7044 98.2506 98.3676 98.1445 95.6221C98.0718 93.7403 104.461 98.1746 102.647 102.622" stroke="#C48B5B" stroke-width="5"/>
</svg>
