<svg width="20" height="18" viewBox="0 0 20 18" fill="none" xmlns="http://www.w3.org/2000/svg">
<path d="M9.15556 2.29375C9.35553 2.56534 10.6445 2.56534 10.8444 2.29375C11.8222 0.963375 13.2667 0 15 0C17.7667 0 20 2.30522 20 5.16094C20 6.22753 19.6889 7.21384 19.1556 8.02812C18.4199 9.16239 12.7703 15.3382 10.7311 17.5563C10.3362 17.9858 9.66376 17.9858 9.26894 17.5563C7.22975 15.3382 1.58007 9.16239 0.844444 8.02812C0.311111 7.21384 0 6.22753 0 5.16094C0 2.30522 2.23333 0 5 0C6.73333 0 8.18889 0.963375 9.15556 2.29375Z" fill="#C48B5B"/>
</svg>
