<svg width="46" height="48" viewBox="0 0 46 48" fill="none" xmlns="http://www.w3.org/2000/svg">
<path d="M12.5 23.5V28M12.5 33.5V38M23.5 23.5V28M23.5 33.5V38M33.5 33.5V38M33.5 23.5V28" stroke="#C48B5B" stroke-width="5"/>
<path d="M1.5 16.5H44.5" stroke="#C48B5B" stroke-width="3"/>
<path d="M12 0V5.25V10.5M33.5 0V10.5M1.5 8.5V43C2.23914 45.2175 2.85627 46.186 5 46.5H41C43.5272 45.8441 43.9658 44.877 44.5 43V8.5C44.5691 5.96138 43.3848 5.20348 41 4H5C2.71116 5.09674 2.01338 6.13108 1.5 8.5Z" stroke="#C48B5B" stroke-width="3"/>
</svg>
