<svg xmlns="http://www.w3.org/2000/svg" viewBox="0 0 100 100" width="100%" height="100%">
    <style>
        .insta-flat {
            fill: none;
            stroke: #C48B5B;
            stroke-width: 4.5;
            stroke-linecap: round;
            stroke-linejoin: round;
        }
    </style>
    <path d="M 32,8 L 68,8 C 81,8 92,19 92,32 L 92,68 C 92,81 81,92 68,92 L 32,92 C 19,92 8,81 8,68 L 8,32 C 8,19 19,8 32,8 Z M 50,28 C 38,28 28,38 28,50 C 28,62 38,72 50,72 C 62,72 72,62 72,50 C 72,38 62,28 50,28 Z M 75,25 a 3.5,3.5 0 1,1 -7,0 3.5,3.5 0 1,1 7,0 Z" class="insta-flat"/>
</svg>
