<svg xmlns="http://www.w3.org/2000/svg" viewBox="0 0 100 100" width="100%" height="100%">
    <style>
        .logo-path {
            fill: none;
            stroke: #C48B5B;
            stroke-width: 2.2;
            stroke-linecap: round;
            stroke-linejoin: round;
        }
    </style>

    <circle cx="50" cy="50" r="45" class="logo-path" />

    <circle cx="50" cy="24" r="6.5" class="logo-path" />

    <path d="M 50,30.5 L 50,33 C 45,34 40,36 38,41 C 36,46 32,54 31,61 C 30.5,64 34,65 35.5,61 C 37,56 40,49 42,46 L 42,65 M 50,30.5 L 50,33 C 55,34 60,36 62,41 C 64,46 68,54 69,61 C 69.5,64 66,65 64.5,61 C 63,56 60,49 58,46 L 58,65" class="logo-path" />

    <path d="M 42,65 C 35,66 22,66 22,72 C 22,75 30,75 42,75 C 46,75 48,72 50,70 C 52,72 54,75 58,75 C 70,75 78,75 78,72 C 78,66 65,66 58,65 M 42,65 C 45,67 55,67 58,65 M 45,69 L 50,73 L 55,69" class="logo-path" />
</svg>
