<svg width="24" height="24" viewBox="0 0 24 24" fill="none" xmlns="http://www.w3.org/2000/svg">
<path fill-rule="evenodd" clip-rule="evenodd" d="M12.983 2.802C14.7188 2.98759 16.3666 3.66056 17.736 4.74312C19.1054 5.82569 20.1406 7.27366 20.7218 8.9197C21.303 10.5657 21.4066 12.3427 21.0206 14.0451C20.6345 15.7475 19.7747 17.306 18.5403 18.5403C17.306 19.7747 15.7475 20.6345 14.0451 21.0206C12.3427 21.4066 10.5657 21.303 8.9197 20.7218C7.27366 20.1406 5.82569 19.1054 4.74312 17.736C3.66055 16.3666 2.98759 14.7188 2.802 12.983C3.43561 13.7881 4.23265 14.4497 5.14059 14.9243C6.04852 15.3989 7.04674 15.6757 8.06944 15.7364C9.09213 15.7972 10.1161 15.6404 11.0738 15.2766C12.0315 14.9128 12.9013 14.3501 13.6257 13.6257C14.3501 12.9013 14.9128 12.0315 15.2766 11.0738C15.6404 10.1161 15.7972 9.09213 15.7364 8.06944C15.6757 7.04674 15.3989 6.04852 14.9243 5.14059C14.4497 4.23265 13.7881 3.43561 12.983 2.802ZM22.75 12C22.75 6.063 17.937 1.25 12 1.25C11.283 1.25 10.925 1.821 10.863 2.276C10.804 2.714 10.966 3.271 11.469 3.575C12.2161 4.02586 12.8507 4.64082 13.3249 5.37331C13.799 6.10579 14.1003 6.93658 14.2058 7.80274C14.3112 8.6689 14.2182 9.54771 13.9338 10.3726C13.6493 11.1975 13.1808 11.9468 12.5638 12.5638C11.9468 13.1808 11.1975 13.6493 10.3726 13.9338C9.54771 14.2182 8.6689 14.3112 7.80274 14.2058C6.93658 14.1003 6.10579 13.799 5.37331 13.3249C4.64082 12.8507 4.02586 12.2161 3.575 11.469C3.271 10.966 2.714 10.804 2.276 10.863C1.821 10.925 1.25 11.283 1.25 12C1.25 17.937 6.063 22.75 12 22.75C17.937 22.75 22.75 17.937 22.75 12Z" fill="#C48B5B"/>
</svg>
