<svg width="19" height="20" viewBox="0 0 19 20" fill="none" xmlns="http://www.w3.org/2000/svg">
<path d="M18.017 18.9997C18.017 18.9997 9.1035 13.7932 3.875 4.2417" stroke="#C48B5B" stroke-linecap="round" stroke-linejoin="round"/>
<path d="M15.5355 17.3127C5.92697 19.6187 5.18896 12.1987 5.18896 12.1987" stroke="#C48B5B" stroke-linecap="round" stroke-linejoin="round"/>
<path d="M11.5574 12.2973C11.3109 9.12629 12.4899 7.59079 12.4899 7.59079C16.3839 11.8458 15.8549 16.1733 15.5354 17.3128M10.0084 14.4738C7.81203 13.9385 5.78832 12.8521 4.12844 11.3173C0.570444 8.04729 0.572944 3.27729 0.500444 1.36629C0.496346 1.24036 0.520663 1.11512 0.57159 0.999879C0.622518 0.884633 0.698747 0.782338 0.794621 0.700586C0.890494 0.618834 1.00355 0.559725 1.12539 0.527647C1.24724 0.495569 1.37474 0.491345 1.49844 0.51529C8.98594 1.99229 11.5234 9.69779 11.5234 9.69779" stroke="#C48B5B" stroke-linecap="round" stroke-linejoin="round"/>
</svg>
