<svg width="37" height="49" viewBox="0 0 37 49" fill="none" xmlns="http://www.w3.org/2000/svg">
<path d="M9.5 24.4036L14.7942 29.2566C15.1889 29.6184 15.7985 29.6051 16.177 29.2265L29.5 15.9036M18.7592 1.89454C22.8337 7.00425 26.6928 8.39947 34.4847 8.4096C35.042 8.41033 35.5 8.8591 35.5 9.41636V28.1954C35.5 28.3327 35.4707 28.4712 35.4156 28.5969C30.977 38.7366 27.0977 42.6638 18.4797 46.682C18.1817 46.821 17.8277 46.8012 17.5464 46.631C8.70896 41.2839 5.46331 37.0435 1.59141 28.6033C1.53168 28.4731 1.5 28.3294 1.5 28.1862V9.41135C1.5 8.85603 1.95477 8.4084 2.51006 8.40306C8.66167 8.34389 12.2569 7.18289 17.1672 1.8358C17.5999 1.3646 18.3604 1.39434 18.7592 1.89454Z" stroke="#C48B5B" stroke-width="3"/>
</svg>
