<svg width="116" height="119" viewBox="0 0 116 119" fill="none" xmlns="http://www.w3.org/2000/svg">
<path d="M53.5352 40.1191L45.5352 41.6191L40.0352 45.6191L35.5352 50.6191L33.5352 58.6191L35.5352 74.6191L41.5352 91.7112L46.5352 91.1191M48.0352 67.6191C48.0352 67.6191 50.5352 89.6191 46.5352 91.1191L8.53516 95.6191L3.53516 99.6191L2.53516 104.619L3.53516 111.619L8.53516 115.119H20.0352H26.0352C26.0352 115.119 68.5352 115.119 73.0352 115.119C77.5352 115.119 86.0352 104.619 86.0352 104.619M73.5352 115.619L104.535 115.119L111.535 111.619L112.535 106.119L111.535 100.119L106.035 93.6191L98.0352 91.7112L77.5352 91.1191M77.5352 91.1191H73.5352C73.5352 91.1191 77.5352 91.1191 72.5352 91.1191C67.5352 91.1191 68.0352 64.6191 68.0352 64.6191M77.5352 91.1191L78.5352 84.1191L80.0352 74.6191L81.0352 61.6191V54.6191L78.0352 46.1191L71.0352 41.6191L64.0352 40.1191V35.6191L69.5352 34.1191L73.5352 30.1191L74.5352 19.6191L71.0352 10.1191L67.0352 6.61914L63.0352 4.11914L57.5352 2.61914L50.5352 5.11914L45.5352 8.61914L43.5352 10.1191L42.0352 19.6191L43.5352 30.1191L48.0352 34.1191L53.5352 35.6191L54.0352 39.6191" stroke="#C48B5B" stroke-width="5"/>
</svg>
