<svg xmlns="http://www.w3.org/2000/svg" viewBox="0 0 100 100" width="100%" height="100%">
    <style>
        .wa-flat {
            fill: none;
            stroke: #C48B5B;
            stroke-width: 4.5;
            stroke-linecap: round;
            stroke-linejoin: round;
        }
    </style>
    <path d="M 50,8 C 73.2,8 92,26.8 92,50 C 92,73.2 73.2,92 50,92 C 42.1,92 34.7,89.8 28.3,86 L 8,92 L 14.3,72.2 C 10.3,65.6 8,58.1 8,50 C 8,26.8 26.8,8 50,8 Z M 35,36 C 36,34 39,34.5 41,36.5 L 44,40.5 C 45,42 44.5,43 43,44 C 41.5,45 42,47 44,50 C 46.5,53.5 49.5,55.5 51.5,54.5 C 53,53.5 54,53 55.5,54 L 60,56.5 C 62.5,58 62.5,61 60.5,62.5 C 57.5,65 52,65 44.5,60 C 37,55 32.5,47.5 32.5,43 C 32.5,39.5 34,37.5 35,36 Z" class="wa-flat"/>
</svg>
